<svg xmlns="http://www.w3.org/2000/svg" width="122" height="121.999" viewBox="0 0 122 121.999"><defs><style>.a{fill:#61b9e6;}.b{fill:#fff;}</style></defs><g transform="translate(-106.142 -2810.728)"><path class="a" d="M228.142,2871.727a61,61,0,1,1-61-61,61,61,0,0,1,61,61" transform="translate(0)"/><path class="b" d="M199.751,2895.846h-6.184v-42.51h6.058a1.54,1.54,0,0,0,0-3.081h-6.058v-6.185a1.539,1.539,0,0,0-3.078,0v6.185H147.978v-6.185a1.54,1.54,0,0,0-3.08,0v6.185h-6.058a1.54,1.54,0,0,0,0,3.081H144.9v42.51h-6.184a1.54,1.54,0,0,0,0,3.081H144.9v6.184a1.54,1.54,0,0,0,3.08,0v-6.184h42.511v6.184a1.539,1.539,0,1,0,3.078,0v-6.184h6.184a1.54,1.54,0,1,0,0-3.081Zm-18.521-5.609H147.978v-2.773H156.3v.032H182.17v-.032h8.317v2.773Zm.939-5.852v0H148.646v-2.634h41.841v2.636Zm-.939-5.682H148.646v-2.648h39.883v.012h1.958v2.635Zm7.3-5.716H148.646v-2.637h41.841v2.636Zm-7.3-5.681H148.646v-2.645h39.883v.007h1.958v2.638Zm7.264-5.715H147.978v-2.6H190.3v.159h.192v2.446Zm-39.883-8.257h39.883v0h1.992v2.444H190.3v.159H147.978v-2.605Zm33.559,42.512v-.021H156.3v.021h-8.318v-2.564h42.509v2.564Z" transform="translate(-3.113 -3.191)"/></g></svg>