<svg xmlns="http://www.w3.org/2000/svg" width="146.644" height="146.644" viewBox="0 0 146.644 146.644"><defs><style>.a{fill:#ef913c;}.b{fill:#fff;}</style></defs><g transform="translate(-127.881 -3503.999)"><g transform="translate(127.881 3503.999)"><ellipse class="a" cx="61.115" cy="61.115" rx="61.115" ry="61.115" transform="translate(0 119.083) rotate(-76.969)"/></g><g transform="translate(171.308 3555.926)"><g transform="translate(0)"><g transform="translate(0.169 8.542)"><path class="b" d="M192.007,3098.642a8.55,8.55,0,0,0-8.541,8.541,2.135,2.135,0,1,0,4.27,0,4.271,4.271,0,1,1,4.271,4.271H143.062a2.135,2.135,0,0,0,0,4.271h48.945a8.541,8.541,0,1,0,0-17.083Z" transform="translate(-140.927 -3098.642)"/></g><path class="b" d="M170.635,3089.176a8.551,8.551,0,0,0-8.541,8.542,2.135,2.135,0,0,0,4.27,0,4.271,4.271,0,1,1,4.271,4.271h-27.76a2.135,2.135,0,1,0,0,4.27h27.76a8.541,8.541,0,1,0,0-17.083Z" transform="translate(-140.74 -3089.176)"/><g transform="translate(0 29.896)"><path class="b" d="M170.635,3122.306h-27.76a2.136,2.136,0,0,0,0,4.271h27.76a4.27,4.27,0,1,1-4.271,4.27,2.135,2.135,0,0,0-4.27,0,8.541,8.541,0,1,0,8.541-8.541Z" transform="translate(-140.74 -3122.306)"/></g></g></g></g></svg>