<svg xmlns="http://www.w3.org/2000/svg" width="146.64" height="146.64" viewBox="0 0 146.64 146.64"><defs><style>.a{fill:#61b9e6;}.b{fill:#f6efed;}</style></defs><g transform="translate(-92.819 -3264.316)"><g transform="translate(92.819 3264.316)"><ellipse class="a" cx="61.114" cy="61.114" rx="61.114" ry="61.114" transform="translate(0 119.08) rotate(-76.969)"/></g><path class="b" d="M203.581,3339.638l0,0-27.1-27.1a6.116,6.116,0,0,0-8.649,0l-27.083,27.082-.027.028a6.113,6.113,0,0,0,4.069,10.419q.095.009.189.009h1.08v19.94a7.165,7.165,0,0,0,7.157,7.157h10.6a1.946,1.946,0,0,0,1.946-1.946v-15.633a3.27,3.27,0,0,1,3.266-3.266h6.253a3.269,3.269,0,0,1,3.265,3.266v15.633a1.946,1.946,0,0,0,1.946,1.946h10.6a7.165,7.165,0,0,0,7.157-7.157v-19.94h1a6.117,6.117,0,0,0,4.328-10.437Zm-2.756,5.893a2.213,2.213,0,0,1-1.572.652H196.3a1.946,1.946,0,0,0-1.946,1.946v21.886a3.269,3.269,0,0,1-3.265,3.265h-8.655v-13.687a7.166,7.166,0,0,0-7.158-7.158h-6.253a7.166,7.166,0,0,0-7.158,7.158v13.687h-8.655a3.269,3.269,0,0,1-3.265-3.265v-21.886a1.946,1.946,0,0,0-1.946-1.946h-2.9c-.031,0-.06,0-.091,0a2.221,2.221,0,0,1-1.531-3.793h0l27.1-27.095a2.222,2.222,0,0,1,3.143,0l27.09,27.089.013.012A2.229,2.229,0,0,1,200.825,3345.531Z" transform="translate(-6.605 -6.649)"/></g></svg>