<svg xmlns="http://www.w3.org/2000/svg" width="146.64" height="146.64" viewBox="0 0 146.64 146.64"><defs><style>.a{fill:#ef913c;}.b{fill:#fff;}</style></defs><g transform="translate(-92.801 -3499.251)"><g transform="translate(92.801 3499.251)"><circle class="a" cx="61.114" cy="61.114" r="61.114" transform="translate(0 119.079) rotate(-76.969)"/></g><g transform="translate(130.41 3535.081)"><path class="b" d="M206.666,3563.4H195.521a1.1,1.1,0,1,0,0,2.21h11.145a.426.426,0,0,1,.426.426v16.048h-67.6v-16.048a.426.426,0,0,1,.426-.426h57.492a1.1,1.1,0,1,0,0-2.21H139.915a2.639,2.639,0,0,0-2.637,2.636v36.331a1.105,1.105,0,0,0,2.211,0V3584.29h67.6v25.835a.425.425,0,0,1-.426.425h-23.3a1.105,1.105,0,0,0,0,2.211h13.372v2.055a2.582,2.582,0,0,0,2.579,2.579h1.831a2.582,2.582,0,0,0,2.579-2.579v-2.055h2.942a2.638,2.638,0,0,0,2.636-2.636v-44.093A2.638,2.638,0,0,0,206.666,3563.4Zm-5.153,51.42a.369.369,0,0,1-.368.369h-1.831a.369.369,0,0,1-.368-.369v-2.055h2.567Z" transform="translate(-137.278 -3541.939)"/><path class="b" d="M187.164,3610.55H139.915a.426.426,0,0,1-.426-.425v-8.756a1.105,1.105,0,0,0-2.211,0v8.756a2.639,2.639,0,0,0,2.637,2.636h2.941v2.055a2.583,2.583,0,0,0,2.58,2.579h1.83a2.582,2.582,0,0,0,2.579-2.579v-2.055h37.319a1.105,1.105,0,1,0,0-2.211Zm-39.529,4.266a.37.37,0,0,1-.369.369h-1.83a.369.369,0,0,1-.369-.369v-2.055h2.568Z" transform="translate(-137.278 -3541.939)"/><path class="b" d="M189.9,3568.142h-6.992a1.1,1.1,0,1,0,0,2.21H189.9a1.1,1.1,0,1,0,0-2.21Z" transform="translate(-137.278 -3541.939)"/><path class="b" d="M189.9,3572.379h-6.992a1.106,1.106,0,0,0,0,2.211H189.9a1.106,1.106,0,0,0,0-2.211Z" transform="translate(-137.278 -3541.939)"/><path class="b" d="M189.9,3576.617h-6.992a1.1,1.1,0,1,0,0,2.21H189.9a1.1,1.1,0,1,0,0-2.21Z" transform="translate(-137.278 -3541.939)"/><path class="b" d="M151.6,3568.142H144.6a1.1,1.1,0,1,0,0,2.21H151.6a1.1,1.1,0,1,0,0-2.21Z" transform="translate(-137.278 -3541.939)"/><path class="b" d="M151.6,3572.379H144.6a1.106,1.106,0,0,0,0,2.211H151.6a1.106,1.106,0,0,0,0-2.211Z" transform="translate(-137.278 -3541.939)"/><path class="b" d="M151.6,3576.617H144.6a1.1,1.1,0,1,0,0,2.21H151.6a1.1,1.1,0,1,0,0-2.21Z" transform="translate(-137.278 -3541.939)"/><path class="b" d="M164.19,3568.142H157.2a1.1,1.1,0,1,0,0,2.21h6.991a1.1,1.1,0,1,0,0-2.21Z" transform="translate(-137.278 -3541.939)"/><path class="b" d="M164.19,3572.379H157.2a1.106,1.106,0,0,0,0,2.211h6.991a1.106,1.106,0,0,0,0-2.211Z" transform="translate(-137.278 -3541.939)"/><path class="b" d="M164.19,3576.617H157.2a1.1,1.1,0,1,0,0,2.21h6.991a1.1,1.1,0,1,0,0-2.21Z" transform="translate(-137.278 -3541.939)"/><path class="b" d="M176.786,3568.142h-6.992a1.1,1.1,0,1,0,0,2.21h6.992a1.1,1.1,0,1,0,0-2.21Z" transform="translate(-137.278 -3541.939)"/><path class="b" d="M176.786,3572.379h-6.992a1.106,1.106,0,0,0,0,2.211h6.992a1.106,1.106,0,0,0,0-2.211Z" transform="translate(-137.278 -3541.939)"/><path class="b" d="M176.786,3576.617h-6.992a1.1,1.1,0,1,0,0,2.21h6.992a1.1,1.1,0,1,0,0-2.21Z" transform="translate(-137.278 -3541.939)"/><path class="b" d="M201.977,3568.142h-6.991a1.1,1.1,0,1,0,0,2.21h6.991a1.1,1.1,0,1,0,0-2.21Z" transform="translate(-137.278 -3541.939)"/><path class="b" d="M201.977,3572.379h-6.991a1.106,1.106,0,0,0,0,2.211h6.991a1.106,1.106,0,1,0,0-2.211Z" transform="translate(-137.278 -3541.939)"/><path class="b" d="M201.977,3576.617h-6.991a1.1,1.1,0,1,0,0,2.21h6.991a1.1,1.1,0,1,0,0-2.21Z" transform="translate(-137.278 -3541.939)"/><path class="b" d="M144.954,3588.208a1.1,1.1,0,0,0-1.1-1.1h-.014a1.1,1.1,0,0,0-1.1,1.1,1.109,1.109,0,0,0,2.218,0Z" transform="translate(-137.278 -3541.939)"/><path class="b" d="M148.656,3588.2a1.1,1.1,0,0,0-1.105-1.1h-.014a1.1,1.1,0,0,0-1.1,1.1,1.109,1.109,0,0,0,2.217,0Z" transform="translate(-137.278 -3541.939)"/><path class="b" d="M152.359,3588.19a1.106,1.106,0,0,0-1.106-1.106h-.014a1.106,1.106,0,1,0,1.12,1.106Z" transform="translate(-137.278 -3541.939)"/><path class="b" d="M143.988,3555.566a4.992,4.992,0,0,0,1.188,3.219,1.105,1.105,0,0,0,1.687-1.429,2.742,2.742,0,0,1,0-3.58,4.953,4.953,0,0,0,0-6.437,2.742,2.742,0,0,1,0-3.58,1.105,1.105,0,1,0-1.687-1.429,4.955,4.955,0,0,0,0,6.438,2.743,2.743,0,0,1,0,3.579A4.993,4.993,0,0,0,143.988,3555.566Z" transform="translate(-137.278 -3541.939)"/><path class="b" d="M150.048,3555.566a4.992,4.992,0,0,0,1.188,3.219,1.105,1.105,0,1,0,1.687-1.429,2.745,2.745,0,0,1,0-3.58,4.95,4.95,0,0,0,0-6.437,2.745,2.745,0,0,1,0-3.58,1.105,1.105,0,1,0-1.686-1.429,4.952,4.952,0,0,0,0,6.438,2.743,2.743,0,0,1,0,3.579A4.988,4.988,0,0,0,150.048,3555.566Z" transform="translate(-137.278 -3541.939)"/><path class="b" d="M156.108,3555.566a4.992,4.992,0,0,0,1.188,3.219,1.105,1.105,0,0,0,1.687-1.429,2.745,2.745,0,0,1,0-3.58,4.953,4.953,0,0,0,0-6.437,2.745,2.745,0,0,1,0-3.58,1.105,1.105,0,1,0-1.687-1.429,4.955,4.955,0,0,0,0,6.438,2.74,2.74,0,0,1,0,3.579A4.993,4.993,0,0,0,156.108,3555.566Z" transform="translate(-137.278 -3541.939)"/><path class="b" d="M162.168,3555.566a4.988,4.988,0,0,0,1.189,3.219,1.105,1.105,0,0,0,1.687-1.429,2.745,2.745,0,0,1,0-3.58,4.953,4.953,0,0,0,0-6.437,2.745,2.745,0,0,1,0-3.58,1.105,1.105,0,1,0-1.687-1.429,4.955,4.955,0,0,0,0,6.438,2.743,2.743,0,0,1,0,3.579A4.988,4.988,0,0,0,162.168,3555.566Z" transform="translate(-137.278 -3541.939)"/><path class="b" d="M168.229,3555.566a4.992,4.992,0,0,0,1.188,3.219,1.105,1.105,0,0,0,1.687-1.429,2.745,2.745,0,0,1,0-3.58,4.953,4.953,0,0,0,0-6.437,2.745,2.745,0,0,1,0-3.58,1.105,1.105,0,1,0-1.687-1.429,4.955,4.955,0,0,0,0,6.438,2.74,2.74,0,0,1,0,3.579A4.993,4.993,0,0,0,168.229,3555.566Z" transform="translate(-137.278 -3541.939)"/><path class="b" d="M174.289,3555.566a4.992,4.992,0,0,0,1.188,3.219,1.105,1.105,0,0,0,1.687-1.429,2.745,2.745,0,0,1,0-3.58,4.95,4.95,0,0,0,0-6.437,2.745,2.745,0,0,1,0-3.58,1.105,1.105,0,1,0-1.686-1.429,4.952,4.952,0,0,0,0,6.438,2.743,2.743,0,0,1,0,3.579A4.988,4.988,0,0,0,174.289,3555.566Z" transform="translate(-137.278 -3541.939)"/><path class="b" d="M180.349,3555.566a4.992,4.992,0,0,0,1.188,3.219,1.106,1.106,0,0,0,1.688-1.429,2.742,2.742,0,0,1,0-3.58,4.953,4.953,0,0,0,0-6.437,2.742,2.742,0,0,1,0-3.58,1.105,1.105,0,1,0-1.687-1.429,4.955,4.955,0,0,0,0,6.438,2.743,2.743,0,0,1,0,3.579A4.988,4.988,0,0,0,180.349,3555.566Z" transform="translate(-137.278 -3541.939)"/><path class="b" d="M186.409,3555.566a4.988,4.988,0,0,0,1.188,3.218,1.105,1.105,0,0,0,1.688-1.428,2.742,2.742,0,0,1,0-3.58,4.953,4.953,0,0,0,0-6.437,2.742,2.742,0,0,1,0-3.58,1.106,1.106,0,0,0-1.688-1.429,4.953,4.953,0,0,0,0,6.438,2.742,2.742,0,0,1,0,3.579A4.993,4.993,0,0,0,186.409,3555.566Z" transform="translate(-137.278 -3541.939)"/><path class="b" d="M192.469,3555.566a4.983,4.983,0,0,0,1.189,3.218,1.105,1.105,0,0,0,1.687-1.428,2.746,2.746,0,0,1,0-3.58,4.952,4.952,0,0,0,0-6.437,2.745,2.745,0,0,1,0-3.58,1.105,1.105,0,0,0-1.687-1.429,4.955,4.955,0,0,0,0,6.438,2.74,2.74,0,0,1,0,3.579A4.988,4.988,0,0,0,192.469,3555.566Z" transform="translate(-137.278 -3541.939)"/><path class="b" d="M198.53,3555.566a4.992,4.992,0,0,0,1.188,3.219,1.105,1.105,0,0,0,1.687-1.429,2.745,2.745,0,0,1,0-3.58,4.953,4.953,0,0,0,0-6.437,2.745,2.745,0,0,1,0-3.58,1.105,1.105,0,1,0-1.687-1.429,4.955,4.955,0,0,0,0,6.438,2.74,2.74,0,0,1,0,3.579A4.993,4.993,0,0,0,198.53,3555.566Z" transform="translate(-137.278 -3541.939)"/><path class="b" d="M201.72,3604.784v-15.238a3.238,3.238,0,1,0-6.476,0v15.238a3.238,3.238,0,1,0,6.476,0Zm-4.266,0v-15.238a1.028,1.028,0,1,1,2.055,0v15.238a1.028,1.028,0,0,1-2.055,0Z" transform="translate(-137.278 -3541.939)"/><path class="b" d="M193.276,3604.784v-15.238a3.239,3.239,0,1,0-6.477,0v15.238a3.239,3.239,0,0,0,6.477,0Zm-4.266,0v-15.238a1.028,1.028,0,0,1,2.056,0v15.238a1.028,1.028,0,0,1-2.056,0Z" transform="translate(-137.278 -3541.939)"/></g></g></svg>