<svg xmlns="http://www.w3.org/2000/svg" width="146.64" height="146.64" viewBox="0 0 146.64 146.64"><defs><style>.a{fill:#61b9e6;}.b{fill:#fff;}</style></defs><g transform="translate(-1157.573 -2797.275)"><g transform="translate(1157.573 2797.275)"><circle class="a" cx="61.114" cy="61.114" r="61.114" transform="translate(0 119.079) rotate(-76.969)"/></g><g transform="translate(1199.64 2831.173)"><path class="b" d="M1266.289,2886.043l-.057-.771c-.9-11.758-6.377-19.129-11.207-25.63-4.472-6.02-8.335-11.219-8.335-18.889a1.647,1.647,0,0,0-.892-1.462,1.627,1.627,0,0,0-1.706.126,41.771,41.771,0,0,0-15.42,22.286,72.723,72.723,0,0,0-1.689,16.66c-6.7-1.431-8.216-11.451-8.232-11.561a1.642,1.642,0,0,0-2.343-1.246c-.352.17-8.622,4.373-9.1,21.154-.034.559-.036,1.117-.036,1.676a29.566,29.566,0,0,0,59.132,0C1266.4,2887.568,1266.345,2886.8,1266.289,2886.043Zm-29.454,28.624c-5.435,0-9.855-4.709-9.855-10.5,0-.2,0-.4.013-.64a13.314,13.314,0,0,1,1.037-5.217c.953,2.047,2.658,3.929,5.424,3.929a1.641,1.641,0,0,0,1.642-1.643,32.819,32.819,0,0,1,.631-7.472,15.868,15.868,0,0,1,3.325-6.3,21.173,21.173,0,0,0,3.386,6.212c1.9,2.7,3.866,5.494,4.211,10.257.021.282.042.566.042.871C1246.69,2909.958,1242.27,2914.667,1236.835,2914.667Zm10.381-2.146a14.073,14.073,0,0,0,2.759-8.352c0-.387-.024-.746-.072-1.418-.389-5.363-2.72-8.677-4.778-11.6-1.753-2.489-3.266-4.64-3.266-7.691a1.642,1.642,0,0,0-2.632-1.31,19.18,19.18,0,0,0-6.7,10.212,30.05,30.05,0,0,0-.69,5.83,7.8,7.8,0,0,1-1.495-3.528,1.647,1.647,0,0,0-2.377-1.24c-.414.212-4.05,2.3-4.259,9.968-.014.26-.016.52-.016.778a14.075,14.075,0,0,0,2.76,8.352,26.314,26.314,0,0,1-15.9-24.134c0-.493,0-.984.032-1.531.282-9.845,3.433-14.728,5.489-16.882,1.434,5.133,5.19,11.843,12.547,11.843a1.641,1.641,0,0,0,1.642-1.643c0-5.5.124-11.849,1.593-17.666,1.668-6.589,6.238-13.7,11.754-18.521.917,7.035,4.748,12.194,8.776,17.614,4.788,6.445,9.739,13.109,10.568,23.9l.056.785c.051.684.1,1.366.1,2.1A26.315,26.315,0,0,1,1247.216,2912.521Z" transform="translate(-1207.269 -2839.107)"/></g></g></svg>