<svg xmlns="http://www.w3.org/2000/svg" width="146.64" height="146.64" viewBox="0 0 146.64 146.64"><defs><style>.a{fill:#ef913c;}.b{fill:#fff;}</style></defs><g transform="translate(-1157.769 -3032.812)"><g transform="translate(1157.769 3032.812)"><circle class="a" cx="61.114" cy="61.114" r="61.114" transform="matrix(0.225, -0.974, 0.974, 0.225, 0, 119.079)"/></g><g transform="translate(1190.363 3068.643)"><path class="b" d="M1249.346,3111.674l-10.6,12.594a2.6,2.6,0,0,1-3.857.127l-7.156-7.442a2.6,2.6,0,0,1,3.743-3.6l4.309,4.481a1.1,1.1,0,0,0,1.635-.055l7.959-9.451a2.6,2.6,0,1,1,3.972,3.345Z" transform="translate(-1197.117 -3075.862)"/><path class="b" d="M1237.843,3088.61a27.052,27.052,0,1,0,27.052,27.052,27.083,27.083,0,0,0-27.052-27.052Zm0,50.826a23.774,23.774,0,1,1,23.773-23.774,23.8,23.8,0,0,1-23.773,23.774Z" transform="translate(-1197.117 -3075.862)"/><path class="b" d="M1276.4,3121.131c1.019-1.583,2.174-3.379,2.174-5.469s-1.155-3.885-2.174-5.469a10.562,10.562,0,0,1-1.533-2.969,10.949,10.949,0,0,1,.083-3.475c.234-1.928.475-3.921-.4-5.738-.893-1.849-2.7-2.957-4.294-3.934a6.9,6.9,0,0,1-4.136-5.179c-.6-1.763-1.28-3.76-2.876-5.033s-3.683-1.485-5.532-1.679a10.913,10.913,0,0,1-3.387-.688,10.718,10.718,0,0,1-2.587-2.176c-1.314-1.34-2.8-2.859-4.826-3.318-1.947-.442-3.826.233-5.643.885a7.2,7.2,0,0,1-6.837,0c-1.818-.652-3.7-1.327-5.644-.885-2.021.459-3.511,1.978-4.826,3.318a10.734,10.734,0,0,1-2.586,2.176,10.921,10.921,0,0,1-3.388.688c-1.848.194-3.944.413-5.531,1.679s-2.276,3.27-2.876,5.032a6.907,6.907,0,0,1-4.137,5.18c-1.594.977-3.4,2.085-4.294,3.934-.878,1.817-.636,3.81-.4,5.738a10.924,10.924,0,0,1,.083,3.475,10.566,10.566,0,0,1-1.533,2.969c-1.019,1.584-2.173,3.379-2.173,5.469s1.154,3.886,2.173,5.469a10.579,10.579,0,0,1,1.533,2.97,10.923,10.923,0,0,1-.083,3.475c-.233,1.928-.475,3.921.4,5.738.893,1.849,2.7,2.956,4.294,3.934a6.907,6.907,0,0,1,4.137,5.179c.6,1.763,1.28,3.76,2.876,5.033s3.683,1.485,5.531,1.679a10.908,10.908,0,0,1,3.387.688,10.718,10.718,0,0,1,2.587,2.176c1.315,1.34,2.805,2.859,4.826,3.318,1.947.441,3.826-.233,5.644-.885a7.2,7.2,0,0,1,6.837,0,13.138,13.138,0,0,0,4.349,1.026,5.811,5.811,0,0,0,1.294-.142c2.021-.459,3.512-1.977,4.827-3.317a10.7,10.7,0,0,1,2.586-2.176,10.912,10.912,0,0,1,3.387-.689c1.849-.193,3.944-.413,5.532-1.678s2.275-3.27,2.875-5.033a6.907,6.907,0,0,1,4.137-5.179c1.594-.978,3.4-2.085,4.294-3.934.878-1.817.637-3.81.4-5.738a10.948,10.948,0,0,1-.083-3.475,10.576,10.576,0,0,1,1.533-2.97Zm-2.676-1.721a12.9,12.9,0,0,0-1.959,3.985,13.317,13.317,0,0,0,.027,4.563c.186,1.541.362,3-.11,3.972-.487,1.008-1.752,1.784-3.092,2.606a9.831,9.831,0,0,0-5.485,6.866c-.5,1.48-.98,2.879-1.848,3.57s-2.327.84-3.88,1a13.272,13.272,0,0,0-4.436.987,13.013,13.013,0,0,0-3.476,2.814c-1.106,1.127-2.151,2.191-3.26,2.443-1.042.237-2.413-.256-3.865-.777a10.14,10.14,0,0,0-8.986,0c-1.452.521-2.823,1.013-3.864.777-1.11-.252-2.154-1.316-3.26-2.443a13.033,13.033,0,0,0-3.477-2.814,13.273,13.273,0,0,0-4.436-.987c-1.553-.162-3.02-.316-3.88-1s-1.344-2.09-1.847-3.57a9.836,9.836,0,0,0-5.486-6.866c-1.339-.822-2.6-1.6-3.092-2.606-.472-.977-.3-2.431-.11-3.972a13.293,13.293,0,0,0,.027-4.563,12.874,12.874,0,0,0-1.959-3.985c-.858-1.333-1.668-2.592-1.668-3.748s.81-2.414,1.668-3.747a12.874,12.874,0,0,0,1.959-3.985,13.3,13.3,0,0,0-.026-4.564c-.187-1.54-.363-2.995.109-3.971.487-1.009,1.752-1.785,3.092-2.606a9.836,9.836,0,0,0,5.486-6.866c.5-1.481.98-2.879,1.847-3.57s2.327-.84,3.88-1a13.249,13.249,0,0,0,4.436-.986,13.052,13.052,0,0,0,3.477-2.814c1.105-1.127,2.15-2.191,3.26-2.443,1.041-.236,2.412.256,3.864.777a10.138,10.138,0,0,0,8.986,0c1.452-.521,2.823-1.014,3.864-.777,1.11.252,2.155,1.316,3.261,2.443a13.032,13.032,0,0,0,3.476,2.814,13.271,13.271,0,0,0,4.436.986c1.553.163,3.02.317,3.88,1s1.344,2.09,1.848,3.57a9.832,9.832,0,0,0,5.485,6.866c1.34.821,2.6,1.6,3.092,2.606.472.976.3,2.431.11,3.971a13.323,13.323,0,0,0-.027,4.564,12.9,12.9,0,0,0,1.959,3.985c.858,1.333,1.668,2.592,1.668,3.747s-.81,2.415-1.668,3.748Z" transform="translate(-1197.117 -3075.862)"/></g></g></svg>