<svg xmlns="http://www.w3.org/2000/svg" width="146.64" height="146.64" viewBox="0 0 146.64 146.64"><defs><style>.a{fill:#61b9e6;}.b{fill:#fff;}</style></defs><g transform="translate(-1157.769 -3264.266)"><g transform="translate(1157.769 3264.266)"><ellipse class="a" cx="61.114" cy="61.114" rx="61.114" ry="61.114" transform="matrix(0.225, -0.974, 0.974, 0.225, 0, 119.079)"/></g><g transform="translate(1210.73 3293.261)"><path class="b" d="M1239.717,3365.934a5.2,5.2,0,1,0,5.2,5.2A5.2,5.2,0,0,0,1239.717,3365.934Zm0,8.41a3.2,3.2,0,0,1-1.608-5.982l.617-.359v1.726a.991.991,0,0,0,1.982,0V3368l.618.359a3.2,3.2,0,0,1-1.609,5.982Z" transform="translate(-1217.702 -3299.76)"/><path class="b" d="M1236.914,3324.466h7.008a.991.991,0,0,0,0-1.982h-7.008a.991.991,0,0,0,0,1.982Z" transform="translate(-1217.702 -3299.76)"/><path class="b" d="M1250.52,3362.72v-5.606a.992.992,0,0,0-.991-.991h-19.623a.991.991,0,0,0-.991.991v5.606a.991.991,0,0,0,.991.991h19.623A.992.992,0,0,0,1250.52,3362.72Zm-1.982-.991H1230.9V3358.1h17.641Z" transform="translate(-1217.702 -3299.76)"/><path class="b" d="M1261.733,3322.441a5.57,5.57,0,0,0-5.564-5.564h-32.9a5.569,5.569,0,0,0-5.563,5.564v53.928a5.57,5.57,0,0,0,5.563,5.564h2.847v3.214a.992.992,0,0,0,.99.991h5.607a.992.992,0,0,0,.991-.991v-3.214h2.223v3.214a.993.993,0,0,0,.991.991h5.606a.993.993,0,0,0,.992-.991v-3.214h2.222v3.214a.993.993,0,0,0,.991.991h5.607a.993.993,0,0,0,.991-.991v-3.214h2.846a5.57,5.57,0,0,0,5.564-5.564Zm-30.015,61.715h-3.624v-2.223h3.624Zm9.812,0h-3.625v-2.223h3.625Zm9.811,0h-3.625v-2.223h3.625Zm8.41-7.787a3.586,3.586,0,0,1-3.582,3.582h-32.9a3.585,3.585,0,0,1-3.581-3.582v-53.928a3.586,3.586,0,0,1,3.581-3.582h32.9a3.586,3.586,0,0,1,3.582,3.582Z" transform="translate(-1217.702 -3299.76)"/><path class="b" d="M1244.291,3317.076h-1.98v-10.853a4.488,4.488,0,0,0-4.483-4.483h-9.936v4.863h6.183a3.392,3.392,0,0,1,3.389,3.388v7.085h-1.98v-7.085a1.41,1.41,0,0,0-1.409-1.408h-8.163v-8.823h11.916a6.471,6.471,0,0,1,6.463,6.463Z" transform="translate(-1217.702 -3299.76)"/></g></g></svg>