<svg xmlns="http://www.w3.org/2000/svg" width="146.64" height="146.64" viewBox="0 0 146.64 146.64">
  <g id="Grupo_40" data-name="Grupo 40" transform="translate(-1157.769 -3499.309)">
    <g id="Grupo_39" data-name="Grupo 39" transform="translate(1157.769 3499.31)">
      <ellipse id="Elipse_10" data-name="Elipse 10" cx="61.114" cy="61.114" rx="61.114" ry="61.114" transform="translate(0 119.079) rotate(-76.969)" fill="#ef913c"/>
    </g>
    <g id="surface1" transform="translate(1200.772 3533.917)">
      <path id="Trazado_65" data-name="Trazado 65" d="M1211.452,3598.7c0-.076.958-7.2,4.1-9.493a15.408,15.408,0,0,1,2.629-1.444v8.86a5.3,5.3,0,0,0-3.4,5.337V3613.3a1,1,0,0,0,1,1h44.171a1,1,0,0,0,1-1v-11.345a5.322,5.322,0,0,0-3.4-5.337v-8.814a15.315,15.315,0,0,1,2.55,1.407c3.141,2.289,4.1,9.416,4.1,9.49l1.943,14.68,2-.26-1.94-14.681c-.042-.324-1.068-8.049-4.912-10.851a21.325,21.325,0,0,0-4.118-2.128.989.989,0,0,0-.282-.154l-.835-.294c-1.279-.494-2.628-.959-3.915-1.373l-.734-.259a1,1,0,0,0-.24-.07c-2.151-.666-4.038-1.182-5.047-1.445v-2.246a11.63,11.63,0,0,0,4.874-9.455v-1.775a2.955,2.955,0,0,0,1.072.206,3.08,3.08,0,0,0,3.077-3.075v-2.768a3.08,3.08,0,0,0-1.228-2.455,28.784,28.784,0,0,0,.38-5.128c0-11.345-7.893-14.014-12.59-14.621a34.044,34.044,0,0,0-3.885-.2,30.32,30.32,0,0,0-4.465.3c-4.459.7-11.939,3.524-11.939,14.529a29.082,29.082,0,0,0,.388,5.12,3.065,3.065,0,0,0-1.228,2.455v2.768a3.083,3.083,0,0,0,3.055,3.109h.043a3.027,3.027,0,0,0,1.072-.206v1.768a11.628,11.628,0,0,0,4.791,9.4v2.324a98.465,98.465,0,0,0-10.735,3.4h-.034a21.669,21.669,0,0,0-4.4,2.249c-3.845,2.8-4.874,10.522-4.916,10.844l-1.94,14.68,2,.261Zm41.694-33.174a1.075,1.075,0,0,1-2.149,0v-.275a4.776,4.776,0,0,0,2.149-2.394Zm-19.442-22.917a28.312,28.312,0,0,1,4.133-.252,30.02,30.02,0,0,1,3.6.194c4.944.606,10.837,3.3,10.837,12.632a30.632,30.632,0,0,1-.213,4.108c-13.943-5.8-24.778-1.82-28.367-.106a30.389,30.389,0,0,1-.228-4C1223.463,3546.135,1229.033,3543.362,1233.7,3542.606Zm-8.941,22.917a1.074,1.074,0,0,1-2.149,0v-2.669a4.8,4.8,0,0,0,2.149,2.391Zm-.668-4.332c2.711-1.335,13.607-5.852,27.523.067-.554,1.756-1.335,2.19-1.923,2.364-1.169.347-3.111-.135-5.171-.668a19.63,19.63,0,0,0-13.347,0c-2.065.568-4.005,1.047-5.172.668-.54-.174-1.341-.629-1.9-2.431Zm2.671,8.976v-4.437h.278a18.849,18.849,0,0,0,4.705-.9,17.619,17.619,0,0,1,12.267,0,18.849,18.849,0,0,0,4.7.9H1249v4.43a9.658,9.658,0,0,1-9.655,9.65h-2.93a9.661,9.661,0,0,1-9.649-9.65Zm17.348,10.616v1.535l-6.245,8.01-6.319-8.01v-1.579a11.532,11.532,0,0,0,4.858,1.071h2.931a11.51,11.51,0,0,0,4.775-1.032Zm-18.431,4.288c1.958-.6,3.632-1.049,4.494-1.275l7.707,9.742,7.622-9.742c.872.234,2.579.666,4.568,1.3v11.66h-24.391Zm-6.357,13.344a1,1,0,0,0,.866-.994V3586.93c1.127-.433,2.323-.853,3.49-1.233v12.058a1,1,0,0,0,1,1h26.39a1,1,0,0,0,1-1v-12.011l3.49,1.22V3597.4a1.008,1.008,0,0,0,.871.994c.1,0,2.53.371,2.53,3.564v10.316H1216.8v-10.324c0-3.082,2.274-3.524,2.53-3.556Z" transform="translate(-1207.526 -3540.348)" fill="#fff"/>
      <path id="Trazado_66" data-name="Trazado 66" d="M1219.19,3600.672h5.5v1.824h-5.5Z" transform="translate(-1207.526 -3540.348)" fill="#fff"/>
      <path id="Trazado_67" data-name="Trazado 67" d="M1251.076,3600.672h5.493v1.824h-5.493Z" transform="translate(-1207.526 -3540.348)" fill="#fff"/>
    </g>
  </g>
</svg>
