<svg xmlns="http://www.w3.org/2000/svg" width="50" height="40" viewBox="0 0 50 40"><defs><style>.a{fill:#03a9f4;}</style></defs><path class="a" d="M281,240.423a21.638,21.638,0,0,1-5.906,1.594,10.065,10.065,0,0,0,4.509-5.579,20.67,20.67,0,0,1-6.5,2.443,10.345,10.345,0,0,0-7.487-3.193,10.169,10.169,0,0,0-10.244,10.1,10.283,10.283,0,0,0,.237,2.3,29.163,29.163,0,0,1-21.128-10.557,9.994,9.994,0,0,0,3.15,13.49A10.242,10.242,0,0,1,233,249.774v.11a10.179,10.179,0,0,0,8.212,9.917,10.38,10.38,0,0,1-2.687.333,9.239,9.239,0,0,1-1.941-.172,10.329,10.329,0,0,0,9.578,7.03,20.8,20.8,0,0,1-12.709,4.3,19.328,19.328,0,0,1-2.453-.139,29.18,29.18,0,0,0,15.725,4.529c18.862,0,29.175-15.384,29.175-28.72,0-.446-.016-.877-.038-1.3A20.279,20.279,0,0,0,281,240.423Z" transform="translate(-231 -235.688)"/></svg>