<svg xmlns="http://www.w3.org/2000/svg" width="200" height="200" viewBox="0 0 200 200"><defs><style>.a{fill:#fff;}.b{fill:#6f6f71;}.c{fill:#fb591f;}</style></defs><g transform="translate(-3287.529 -1043.019)"><circle class="a" cx="93.062" cy="93.062" r="93.062" transform="translate(3294.94 1051.107)"/><path class="b" d="M3387.53,1050.787a92.234,92.234,0,1,1-92.236,92.234,92.236,92.236,0,0,1,92.236-92.234m0-7.768a100,100,0,1,0,100,100,100.116,100.116,0,0,0-100-100"/><path class="b" d="M3418.682,1097.219c-7.8-7.885-18.866-12.223-31.152-12.223a42.738,42.738,0,0,0-42.69,42.69V1171.1c0,18.477,8.931,29.946,23.3,29.946,20.3,0,27.162-14.525,30.851-22.336l.091-.191c3.723-7.873,8.45-11.177,13.453-14.673,8.57-5.991,17.436-12.181,17.684-36.095.127-12.214-3.863-22.775-11.538-30.529m-9.661,61.6c-5.184,3.62-11.065,7.729-15.485,17.078l-.091.189c-3.543,7.5-8.9,18.828-25.306,18.828-10.913,0-17.169-8.68-17.169-23.817v-43.411a36.6,36.6,0,0,1,36.558-36.56c10.638,0,20.153,3.7,26.789,10.4,6.5,6.569,9.879,15.612,9.769,26.155-.215,20.757-7.1,25.567-15.065,31.135"/><path class="b" d="M3406.447,1118.953a3.066,3.066,0,0,0,5.473-2.765,26.464,26.464,0,0,0-4.819-6.7c-5.365-5.421-12.954-8.405-21.378-8.405-7.8,0-15.478,3.8-21.064,10.415-5.506,6.529-7.932,14.55-6.659,22,.673,3.919,4.052,5.464,7.037,6.829,2.9,1.319,5.63,2.57,7,5.724,1.566,3.6,1.414,6.751-3.766,13.984a3.065,3.065,0,1,0,4.984,3.569c5.031-7.027,7.524-12.827,4.408-20-2.309-5.308-6.8-7.364-10.079-8.861-1.679-.769-3.418-1.564-3.539-2.281-.955-5.585,1.027-11.949,5.3-17.018,4.415-5.234,10.385-8.236,16.376-8.236,6.772,0,12.815,2.34,17.018,6.586a20.442,20.442,0,0,1,3.706,5.155"/><path class="b" d="M3411.984,1125.845a3.067,3.067,0,0,0-3.068,3.068c0,7.894-1.564,11.925-5.769,14.86a3.065,3.065,0,1,0,3.51,5.026c7.374-5.15,8.389-12.6,8.389-19.886a3.062,3.062,0,0,0-3.062-3.068"/><path class="c" d="M3439.958,1201.561a6.093,6.093,0,0,1-4.322-1.791l-104.853-104.855a6.112,6.112,0,0,1,8.644-8.644l104.853,104.855a6.113,6.113,0,0,1-4.322,10.435"/></g></svg>