<svg xmlns="http://www.w3.org/2000/svg" width="199.999" height="200" viewBox="0 0 199.999 200"><defs><style>.a{fill:#fff;}.b{fill:#6f6f71;}.c{fill:#fb591f;}</style></defs><g transform="translate(-788 -876)"><circle class="a" cx="93.062" cy="93.062" r="93.062" transform="translate(793.384 884.088)"/><path class="b" d="M3108.915,1050.787a92.234,92.234,0,1,1-92.234,92.234,92.236,92.236,0,0,1,92.234-92.234m0-7.768a100,100,0,1,0,100,100,100.115,100.115,0,0,0-100-100" transform="translate(-2220.915 -167.019)"/><path class="b" d="M3164.576,1137.271a2.937,2.937,0,1,0-4.632,3.613,3.467,3.467,0,0,1,0,4.271,64.539,64.539,0,0,1-26.954,20.323,32.875,32.875,0,0,0,.076-44.844,64.6,64.6,0,0,1,16.825,9.951c.63.518,1.263,1.053,1.874,1.6a2.939,2.939,0,1,0,3.9-4.4c-.669-.59-1.356-1.175-2.044-1.741a70.559,70.559,0,0,0-100.363,11.233,9.34,9.34,0,0,0,0,11.5,70.56,70.56,0,0,0,111.323,0,9.339,9.339,0,0,0,0-11.5m-106.692,7.887a3.474,3.474,0,0,1,0-4.274,64.553,64.553,0,0,1,26.951-20.319,32.87,32.87,0,0,0,0,44.911,64.549,64.549,0,0,1-26.951-20.318m51.068,24.931h-.074a27.071,27.071,0,0,1,0-54.142h.066a27.071,27.071,0,0,1,.008,54.142" transform="translate(-2220.915 -167.019)"/><path class="b" d="M3108.915,1130.554a12.467,12.467,0,1,0,12.467,12.464,12.481,12.481,0,0,0-12.467-12.464m0,19.057a6.59,6.59,0,1,1,6.591-6.593,6.6,6.6,0,0,1-6.591,6.593" transform="translate(-2220.915 -167.019)"/><path class="c" d="M3161.343,1201.561a6.093,6.093,0,0,1-4.322-1.791l-104.854-104.855a6.112,6.112,0,0,1,8.642-8.644l104.856,104.855a6.113,6.113,0,0,1-4.322,10.435" transform="translate(-2220.915 -167.019)"/></g></svg>