<svg xmlns="http://www.w3.org/2000/svg" width="40.58" height="40.624" viewBox="0 0 40.58 40.624"><defs><style>.a{fill:#1bd741;}</style></defs><g transform="translate(-202.893 -202.866)"><g transform="translate(202.893 202.866)"><path class="a" d="M202.893,243.49l2.842-10.094a20.253,20.253,0,1,1,7.567,7.415Zm10.942-6.367.62.379a16.82,16.82,0,1,0-5.415-5.293l.418.65-1.636,5.813Z" transform="translate(-202.893 -202.866)"/><path class="a" d="M219.841,216.181l-1.315-.072a1.588,1.588,0,0,0-1.13.387,5.983,5.983,0,0,0-1.969,3.018c-.467,2.079.254,4.625,2.121,7.172a21.339,21.339,0,0,0,11.5,8.36,5.6,5.6,0,0,0,4.747-.587,4.243,4.243,0,0,0,1.847-2.7l.21-.981a.68.68,0,0,0-.381-.761l-4.443-2.048a.682.682,0,0,0-.825.2l-1.744,2.261a.5.5,0,0,1-.561.167,13.662,13.662,0,0,1-7.392-6.326.5.5,0,0,1,.063-.562l1.667-1.929a.681.681,0,0,0,.111-.713l-1.915-4.482A.683.683,0,0,0,219.841,216.181Z" transform="translate(-205.217 -205.349)"/></g></g></svg>