<svg xmlns="http://www.w3.org/2000/svg" width="199.999" height="200" viewBox="0 0 199.999 200"><defs><style>.a{fill:#fff;}.b{fill:#6f6f71;}.c{fill:#fb591f;}</style></defs><g transform="translate(-278 -876)"><g transform="translate(-2452.633 -167.019)"><circle class="a" cx="93.062" cy="93.062" r="93.062" transform="translate(2737.66 1051.107)"/><path class="b" d="M2830.633,1050.787a92.234,92.234,0,1,1-92.235,92.234,92.237,92.237,0,0,1,92.235-92.234m0-7.768a100,100,0,1,0,100,100,100.115,100.115,0,0,0-100-100"/><path class="b" d="M2857.633,1147.715c-2.267-5.21-7.36-28.348-11.3-49.355a15.765,15.765,0,0,0-31.408,0c-3.937,21.007-9.03,44.145-11.3,49.355a25.1,25.1,0,1,0,11.866,47.92,21.031,21.031,0,0,0,30.269,0,25.1,25.1,0,1,0,11.866-47.92m-1.511,44.078a19.084,19.084,0,0,1-6.736-1.242,21.219,21.219,0,0,0,1.96-5.824,14.577,14.577,0,0,0,2.595.232c4.572,0,8.284-2.045,8.284-4.561s-3.709-4.566-8.284-4.566c-4.238,0-7.724,1.755-8.216,4.012l-.166.014a15.012,15.012,0,0,1-2.128,8.9l-.944,1.094c-.085.1-.171.2-.261.3a15.805,15.805,0,0,1-23.188,0c-.09-.1-.173-.2-.256-.292l-.945-1.089a15.011,15.011,0,0,1-2.133-8.916l-.168-.014c-.492-2.259-3.978-4.012-8.213-4.012-4.572,0-8.284,2.044-8.284,4.561s3.71,4.563,8.284,4.563a14.4,14.4,0,0,0,2.595-.231,21.013,21.013,0,0,0,1.961,5.824,19.018,19.018,0,1,1-6.737-36.8c2.863,0,4.12-2.712,6.229-10.346,1.2-4.363,2.653-10.426,4.3-18.019,2.793-12.88,5.238-25.928,5.264-26.056l.04-.325a9.685,9.685,0,0,1,19.312,0l.042.327c.023.126,2.469,13.174,5.263,26.054,1.649,7.593,3.094,13.658,4.3,18.019,2.107,7.636,3.367,10.349,6.23,10.349a19.021,19.021,0,0,1,0,38.041"/><path class="b" d="M2825.277,1114.861a3.05,3.05,0,0,0-3.6,2.354L2816,1144.386a3.043,3.043,0,0,0,2.354,3.6,3.155,3.155,0,0,0,.627.064,3.04,3.04,0,0,0,2.973-2.418l5.676-27.169a3.039,3.039,0,0,0-2.353-3.6"/><path class="b" d="M2816.822,1152.192a3.04,3.04,0,1,1-3.042,3.042,3.042,3.042,0,0,1,3.042-3.042"/><path class="c" d="M2883.059,1201.561a6.093,6.093,0,0,1-4.323-1.791l-104.853-104.855a6.112,6.112,0,1,1,8.643-8.644l104.856,104.855a6.113,6.113,0,0,1-4.323,10.435"/></g></g></svg>