<svg xmlns="http://www.w3.org/2000/svg" width="40.624" height="40.624" viewBox="0 0 40.624 40.624"><defs><style>.a{fill:#1976d2;}.b{fill:#fafafa;}</style></defs><g transform="translate(-896 -5636)"><g transform="translate(896 5636)"><path class="a" d="M266.546,231H236.078A5.083,5.083,0,0,0,231,236.078v30.468a5.083,5.083,0,0,0,5.078,5.078h30.468a5.083,5.083,0,0,0,5.078-5.078V236.078A5.083,5.083,0,0,0,266.546,231Z" transform="translate(-231 -231)"/><path class="b" d="M268.792,253.07h-6.347v-5.078c0-1.4,1.137-1.269,2.539-1.269h2.539v-6.348h-5.078a7.617,7.617,0,0,0-7.617,7.617v5.078H249.75v6.348h5.078v13.964h7.617V259.418h3.808Z" transform="translate(-234.516 -232.758)"/></g></g></svg>