<svg xmlns="http://www.w3.org/2000/svg" width="41" height="41" viewBox="0 0 41 41"><defs><style>.a{fill:#0077b7;}</style></defs><g transform="translate(-166 -166)"><path class="a" d="M203.291,166H169.709A3.709,3.709,0,0,0,166,169.709v33.582A3.709,3.709,0,0,0,169.709,207h33.582A3.709,3.709,0,0,0,207,203.291V169.709A3.709,3.709,0,0,0,203.291,166Zm-24.6,35.4a1.08,1.08,0,0,1-1.079,1.08h-4.594a1.08,1.08,0,0,1-1.079-1.08V182.143a1.079,1.079,0,0,1,1.079-1.079h4.594a1.079,1.079,0,0,1,1.079,1.079Zm-3.377-22.154a4.365,4.365,0,1,1,4.365-4.365A4.364,4.364,0,0,1,175.31,179.248ZM202.7,201.489a.993.993,0,0,1-.993.993h-4.93a.993.993,0,0,1-.992-.993v-9.033c0-1.348.4-5.906-3.522-5.906-3.038,0-3.655,3.119-3.779,4.52v10.419a.993.993,0,0,1-.992.993h-4.768a.993.993,0,0,1-.992-.993V182.056a.992.992,0,0,1,.992-.992h4.768a.992.992,0,0,1,.992.992v1.68c1.127-1.691,2.8-3,6.366-3,7.894,0,7.849,7.375,7.849,11.428v9.321Z"/></g></svg>