<svg xmlns="http://www.w3.org/2000/svg" width="135.232" height="61.907" viewBox="0 0 135.232 61.907"><defs><style>.a{fill:#fff;}</style></defs><g transform="translate(-1009.159 -28.312)"><path class="a" d="M1064.716,54.181c-1.952.007-2.864,3.557-2.837,11.321.027,7.866.911,11.112,2.969,11.1,2.007-.007,2.868-3.3,2.84-11.062C1067.659,57.662,1066.722,54.175,1064.716,54.181Z"/><path class="a" d="M1108.753,68.684l2.876-.009-1.471-9.77Z"/><path class="a" d="M1144.212,30.1c-5.351-1.24-22.409-2.981-37.611-.614l-57.03,9.552c-15.7,2.748-31.473,1.887-40.412-.181l.178,51.362,135.054-.476ZM1017.068,82.688l-.122-34.308,14.1-.051.022,5.709-7.046.027.024,7.4,7.045-.023.023,5.716-7.049.017.033,9.772,7.047-.027.022,5.716Zm31.342-5.823a4.9,4.9,0,0,0,3.135-1.144l.026,6.484a8.584,8.584,0,0,1-4.265.945c-7.461.025-12.218-6.8-12.255-17.5s4.879-17.867,12.333-17.893a8.806,8.806,0,0,1,4.274.912l.022,6.372a4.859,4.859,0,0,0-3.14-1.067c-3.964.013-6.16,4.294-6.134,11.751C1042.431,72.875,1044.556,76.881,1048.41,76.865Zm16.459,6.27c-6.481.024-10.361-6.6-10.4-17.655s3.795-17.761,10.272-17.783c6.432-.026,10.36,6.653,10.4,17.709S1071.3,83.115,1064.869,83.135Zm25.727-.194c-7.67.026-12.524-6.439-12.559-16.776-.036-11.007,5.282-18.532,13.254-18.563a10.99,10.99,0,0,1,5.253,1.268l.023,6.483a6.265,6.265,0,0,0-4.228-1.481c-4.468.02-6.872,4.35-6.845,12.217.021,6.23,1.631,10.333,4.1,10.331a4.5,4.5,0,0,0,.668-.058l-.023-6.837h-2.007l-.017-5.3,8.381-.023.061,17.335A12.651,12.651,0,0,1,1090.6,82.941Zm23.037-.594-1.156-7.968-4.58.017-1.157,7.976-7.2.025,6.516-34.334,8.435-.025,6.653,34.285Zm16,.561a10.149,10.149,0,0,1-6.077-1.879l-.025-6.691c1.808,1.542,3.248,2.154,4.742,2.151a2.564,2.564,0,0,0,2.719-2.584c-.007-1.342-.632-2.62-3.732-7.449-3.414-5.382-4.19-7.231-4.2-10.118a8.49,8.49,0,0,1,8.611-8.875,10.017,10.017,0,0,1,5.3,1.474l.024,6.481c-1.7-1.23-2.731-1.635-4.069-1.632a2.569,2.569,0,0,0-2.719,2.478c.008,1.129.526,2.313,1.973,4.574l2.173,3.536c3,4.826,3.935,7.137,3.94,9.815A8.4,8.4,0,0,1,1129.636,82.908Z"/></g></svg>